<?xml version="1.0" encoding="UTF-8"?><svg id="Web" xmlns="http://www.w3.org/2000/svg" viewBox="0 0 332 332"><defs><style>.cls-1{fill:#48086f;}.cls-2{fill:#ff8204;}.cls-3{fill:#b68600;}.cls-4{fill:#ffb92a;}.cls-5{fill:#7f35b2;}.cls-6{opacity:.25;}.cls-7{opacity:.3;}.cls-8{fill:#bf5321;}</style></defs><g><rect class="cls-2" x="48" width="284" height="48"/><rect class="cls-4" y="48" width="48" height="284"/><rect class="cls-5" width="48" height="48" transform="translate(48 48) rotate(180)"/></g><g><g class="cls-6"><path class="cls-3" d="M0,81.86c15.86,5.2,31.79,10.41,48,15.59v-3.15c-16.2-5.18-32.14-10.4-48-15.6v3.16Z"/><path class="cls-3" d="M0,95.51c15.86,5.26,31.8,10.53,48,15.77v-3.15c-16.2-5.24-32.13-10.52-48-15.77v3.16Z"/><path class="cls-3" d="M0,109.16c15.87,5.31,31.81,10.64,48,15.95v-3.16c-16.19-5.3-32.13-10.64-48-15.95v3.16Z"/><path class="cls-3" d="M0,68.2c15.85,5.14,31.79,10.29,48,15.41v-3.15c-16.21-5.12-32.15-10.27-48-15.42v3.15Z"/><path class="cls-3" d="M0,54.54c15.84,5.08,31.78,10.17,48,15.23v-3.14C31.78,61.57,15.85,56.47,0,51.39v3.15Z"/><path class="cls-3" d="M0,187.6v3.18c3.02,1.07,6.04,2.14,9.05,3.21,12.91,4.58,25.86,9.18,38.95,13.77v-3.18c-12.75-4.47-25.37-8.95-37.94-13.42-3.35-1.19-6.7-2.38-10.06-3.57Z"/><path class="cls-3" d="M0,174.03v3.18c2.46,.86,4.91,1.73,7.36,2.59,13.46,4.74,26.97,9.49,40.64,14.23v-3.18c-13.33-4.62-26.51-9.26-39.64-13.88-2.78-.98-5.57-1.96-8.36-2.94Z"/><path class="cls-3" d="M0,160.44v3.18c1.89,.66,3.78,1.32,5.67,1.98,14.02,4.88,28.08,9.78,42.33,14.67v-3.17c-13.91-4.77-27.65-9.56-41.34-14.33-2.22-.77-4.44-1.55-6.66-2.32Z"/><path class="cls-3" d="M0,119.63v3.17c.21,.07,.42,.14,.62,.21,15.67,5.3,31.4,10.62,47.38,15.91v-3.16c-15.65-5.19-31.06-10.4-46.41-15.59-.53-.18-1.06-.36-1.59-.54Z"/><path class="cls-3" d="M0,146.85v3.17c1.33,.46,2.67,.92,4,1.38,14.57,5.03,29.19,10.07,44,15.09v-3.17c-14.48-4.91-28.78-9.84-43.02-14.76-1.66-.57-3.32-1.14-4.98-1.72Z"/><path class="cls-3" d="M0,133.24v3.17c.77,.26,1.54,.53,2.31,.79,15.12,5.16,30.29,10.35,45.69,15.51v-3.17c-15.06-5.05-29.92-10.13-44.71-15.18-1.09-.37-2.19-.75-3.29-1.12Z"/><path class="cls-3" d="M22.66,48c8.39,2.64,16.82,5.27,25.34,7.89v-3.14c-5.13-1.58-10.22-3.16-15.3-4.75h-10.05Z"/><path class="cls-3" d="M0,241.75v3.2c5.27,1.94,10.53,3.88,15.78,5.81,10.67,3.93,21.39,7.88,32.22,11.84v-3.19c-10.45-3.82-20.83-7.65-31.18-11.46-5.59-2.06-11.19-4.13-16.82-6.19Z"/><path class="cls-3" d="M0,282.26v3.21c6.97,2.63,13.91,5.26,20.84,7.88,9,3.41,18.05,6.83,27.16,10.26v-3.21c-8.74-3.29-17.43-6.58-26.09-9.86-7.27-2.75-14.57-5.51-21.91-8.28Z"/><path class="cls-3" d="M0,255.27v3.2c5.84,2.17,11.66,4.33,17.48,6.49,10.11,3.76,20.27,7.54,30.52,11.32v-3.2c-9.88-3.65-19.69-7.3-29.48-10.94-6.15-2.29-12.32-4.58-18.52-6.88Z"/><path class="cls-3" d="M0,268.76v3.2c6.4,2.39,12.78,4.79,19.15,7.18,9.56,3.59,19.17,7.19,28.85,10.8v-3.2c-9.31-3.47-18.56-6.94-27.79-10.41-6.71-2.52-13.44-5.04-20.21-7.57Z"/><path class="cls-3" d="M0,325.89c5.28,2.04,10.53,4.08,15.78,6.11h8.29c-7.98-3.1-16-6.21-24.07-9.33v3.22Z"/><path class="cls-3" d="M0,309.21v3.21c8.11,3.11,16.18,6.22,24.23,9.32,7.89,3.04,15.8,6.09,23.77,9.14v-3.21c-7.59-2.91-15.15-5.82-22.69-8.73-8.4-3.23-16.83-6.48-25.31-9.73Z"/><path class="cls-3" d="M0,295.74v3.21c7.53,2.86,15.04,5.73,22.52,8.59,8.45,3.23,16.93,6.47,25.48,9.71v-3.21c-8.17-3.1-16.3-6.21-24.41-9.3-7.83-2.99-15.69-5.99-23.59-8.99Z"/><path class="cls-3" d="M0,228.23v3.19c4.71,1.72,9.41,3.44,14.11,5.15,11.22,4.1,22.49,8.22,33.89,12.34v-3.19c-11.02-3.99-21.96-7.98-32.86-11.96-5.03-1.84-10.08-3.68-15.14-5.53Z"/><path class="cls-3" d="M0,214.69v3.19c4.14,1.5,8.28,2.99,12.41,4.49,11.77,4.26,23.62,8.55,35.59,12.83v-3.19c-11.6-4.16-23.1-8.32-34.57-12.47-4.47-1.62-8.94-3.24-13.43-4.86Z"/><path class="cls-3" d="M0,201.14v3.19c3.58,1.28,7.16,2.57,10.73,3.85,12.35,4.43,24.75,8.87,37.27,13.31v-3.18c-12.17-4.32-24.23-8.64-36.25-12.95-3.91-1.4-7.83-2.81-11.75-4.21Z"/></g><g class="cls-7"><path class="cls-8" d="M156.38,0c51.53,11.44,108.7,21.5,175.62,28.99v-3.02c-60.87-6.82-113.66-15.78-161.47-25.97h-14.15Z"/><path class="cls-8" d="M231.54,0c31.08,5.21,64.35,9.85,100.46,13.72v-3.02c-28.93-3.11-56.02-6.71-81.63-10.71h-18.83Z"/><path class="cls-8" d="M48,41.99c6.63,2.01,13.3,4.02,20.04,6.01h10.66c-10.38-3.02-20.6-6.07-30.7-9.14v3.13Z"/><path class="cls-8" d="M48,0V.27c60.46,17.6,125.29,34.44,204.3,47.73h18.74C187.82,34.95,120.29,17.95,57.87,0h-9.87Z"/><path class="cls-8" d="M97.54,0c66.63,17.54,141.03,33.37,234.46,44.24v-3.02C244.1,30.97,173.06,16.32,109.48,0h-11.94Z"/><path class="cls-8" d="M48,14.2c40.15,11.85,82.18,23.39,128.99,33.8h14.13C138.58,36.79,92.15,24.12,48,11.08v3.12Z"/><path class="cls-8" d="M48,28.09c22.64,6.78,45.88,13.46,70.22,19.91h11.89c-28.71-7.4-55.8-15.16-82.11-23.04v3.13Z"/></g><g class="cls-7"><path class="cls-1" d="M48,38.86C31.77,33.93,15.83,28.96,0,23.99v3.14c15.83,4.96,31.77,9.93,48,14.86v-3.13Z"/><path class="cls-1" d="M32.7,48c-10.98-3.43-21.87-6.87-32.7-10.31v3.15c7.52,2.39,15.07,4.77,22.66,7.16h10.05Z"/><path class="cls-1" d="M48,0h-.92c.31,.09,.61,.18,.92,.27v-.27Z"/><path class="cls-1" d="M48,11.08C35.58,7.41,23.34,3.71,11.19,0H.93c15.51,4.75,31.14,9.5,47.07,14.2v-3.12Z"/><path class="cls-1" d="M48,24.96C31.76,20.1,15.83,15.19,0,10.28v3.14c15.82,4.91,31.76,9.81,48,14.67v-3.13Z"/></g></g></svg>