<?xml version="1.0" encoding="UTF-8"?><svg id="Web" xmlns="http://www.w3.org/2000/svg" viewBox="0 0 332 332"><defs><style>.cls-1{fill:#48086f;}.cls-2{fill:#ff8204;}.cls-3{fill:#b68600;}.cls-4{fill:#ffb92a;}.cls-5{fill:#7f35b2;}.cls-6{opacity:.25;}.cls-7{opacity:.3;}.cls-8{fill:#bf5321;}</style></defs><g><rect class="cls-2" x="48" width="284" height="48"/><rect class="cls-4" y="48" width="48" height="284"/><rect class="cls-5" width="48" height="48" transform="translate(48 48) rotate(180)"/></g><g><g class="cls-7"><path class="cls-1" d="M48,0h-.74C32.39,10.81,16.66,22.83,0,36.1v3.84C16.97,26.39,32.93,14.18,48,3.22V0Z"/><path class="cls-1" d="M48,20.12c-11.68,8.52-23.9,17.8-36.7,27.88h4.87c11.05-8.65,21.65-16.68,31.82-24.13v-3.75Z"/><path class="cls-1" d="M38.21,48h5.06c1.59-1.18,3.17-2.35,4.74-3.51v-3.75c-3.23,2.36-6.48,4.77-9.79,7.25Z"/><path class="cls-1" d="M19.48,0C13.13,4.86,6.64,9.91,0,15.15v3.83C8.38,12.34,16.52,6.02,24.44,0h-4.96Z"/></g><g class="cls-7"><path class="cls-8" d="M52.44,0h-4.44V3.22c1.48-1.08,2.97-2.16,4.44-3.22Z"/><path class="cls-8" d="M48,23.87C59.99,15.1,71.4,7.15,82.25,0h-5.52c-9.2,6.15-18.78,12.86-28.73,20.12v3.75Z"/><path class="cls-8" d="M48,44.49C73.14,26.02,95.65,11.28,115.92,0h-6.23c-18.76,10.75-39.23,24.3-61.7,40.75v3.75Z"/><path class="cls-8" d="M137.17,48h7.74c22.51-8.93,42.16-12.41,59.87-10.94,12.56,1.04,24.35,4.6,35.74,10.94h5.93c-13.14-8.2-26.76-12.72-41.42-13.93-19.88-1.65-42.08,2.76-67.86,13.93Z"/><path class="cls-8" d="M209.37,11.99c-30.23-2.72-65.87,8.48-111.37,36.01h5.78C146.63,22.68,180.42,12.39,209.11,14.98c22.99,2.07,43.38,12.54,63.4,33.02h4.17c-21.18-22.42-42.77-33.8-67.29-36.01Z"/><path class="cls-8" d="M280.61,0h-4.29c10.89,10.48,21.57,23.89,32.4,40.52,1.62,2.49,3.21,4.98,4.8,7.48h3.56c-1.93-3.05-3.87-6.09-5.85-9.12-10.22-15.69-20.33-28.58-30.62-38.88Z"/><path class="cls-8" d="M247.53,0h-6.92c18.95,8.39,36.51,24.01,54.25,48h3.73c-16.73-23.01-33.33-38.7-51.06-48Z"/><path class="cls-8" d="M318.47,0c4.64,7.4,9.13,14.85,13.53,22.31v-5.9c-3.27-5.49-6.6-10.96-10-16.42h-3.53Z"/><path class="cls-8" d="M303.31,0h-3.75c4.6,6.06,9.2,12.69,13.83,19.92,5.95,9.3,11.67,18.69,17.24,28.08h1.38v-3.55c-5.21-8.75-10.54-17.48-16.09-26.15-4.21-6.58-8.41-12.67-12.61-18.3Z"/><path class="cls-8" d="M152.57,0c-24.85,9.38-53.11,25.17-85.98,48h5.24C106.49,24.21,135.86,8.47,161.44,0h-8.87Z"/></g><g class="cls-6"><path class="cls-3" d="M0,267.19c17.12-14.84,33.07-27.87,48-39.16v-3.72c-14.94,11.22-30.9,24.16-48,38.93v3.96Z"/><path class="cls-3" d="M0,205.83c17.07-14.49,33.03-27.33,48-38.6v-3.73c-14.98,11.2-30.95,23.98-48,38.4v3.93Z"/><path class="cls-3" d="M0,328.03c17.17-15.18,33.11-28.35,48-39.6v-3.74c-14.9,11.17-30.85,24.25-48,39.34v4Z"/><path class="cls-3" d="M0,307.81c17.15-15.07,33.1-28.2,48-39.47v-3.71c-14.92,11.19-30.86,24.22-48,39.2v3.98Z"/><path class="cls-3" d="M0,226.32c17.08-14.61,33.04-27.51,48-38.79v-3.73c-14.97,11.21-30.93,24.05-48,38.59v3.94Z"/><path class="cls-3" d="M0,246.78c17.1-14.73,33.05-27.69,48-38.98v-3.73c-14.96,11.22-30.91,24.11-48,38.76v3.95Z"/><path class="cls-3" d="M0,287.53c17.13-14.96,33.08-28.03,48-39.32v-3.73c-14.93,11.21-30.88,24.21-48,39.08v3.97Z"/><path class="cls-3" d="M11.3,48c-3.72,2.93-7.48,5.92-11.3,8.98v3.85c5.5-4.42,10.89-8.7,16.18-12.84h-4.87Z"/><path class="cls-3" d="M43.42,332c1.54-1.18,3.07-2.35,4.58-3.49v-3.71c-3.1,2.31-6.25,4.71-9.44,7.2h4.86Z"/><path class="cls-3" d="M18.67,332c10.23-8.63,19.99-16.46,29.33-23.51v-3.71c-10.74,8.04-22.04,17.09-33.94,27.22h4.61Z"/><path class="cls-3" d="M38.21,48C26.06,57.12,13.34,67.05,0,77.84v3.86c15.22-12.34,29.62-23.55,43.26-33.7h-5.06Z"/><path class="cls-3" d="M0,185.26c17.05-14.37,33.01-27.15,48-38.39v-3.73c-15,11.18-30.96,23.89-48,38.2v3.92Z"/><path class="cls-3" d="M0,143.99c17.02-14.13,32.98-26.76,48-37.95v-3.72c-15.03,11.14-30.99,23.71-48,37.78v3.9Z"/><path class="cls-3" d="M0,164.65c17.03-14.25,33-26.96,48-38.18v-3.72c-15.01,11.16-30.98,23.8-48,37.99v3.9Z"/><path class="cls-3" d="M0,102.51c16.99-13.89,32.96-26.37,48-37.5v-3.71c-15.05,11.07-31.02,23.49-48,37.33v3.87Z"/><path class="cls-3" d="M0,123.29c17.01-14.01,32.97-26.56,48-37.72v-3.72c-15.04,11.1-31.01,23.61-48,37.56v3.88Z"/></g></g></svg>