<?xml version="1.0" encoding="UTF-8"?><svg id="Web" xmlns="http://www.w3.org/2000/svg" xmlns:xlink="http://www.w3.org/1999/xlink" viewBox="0 0 332 332"><defs><style>.cls-1{fill:#48086f;}.cls-2{opacity:.2;}.cls-3{stroke:#000;stroke-miterlimit:10;stroke-width:3px;}.cls-3,.cls-4{fill:none;}.cls-5{opacity:.4;}.cls-6{fill:#9e0085;}.cls-7{clip-path:url(#clippath);}.cls-8{fill:#f6517f;}.cls-9{fill:url(#Unnamed_Pattern_4);}.cls-10{fill:#c900ac;}.cls-11{fill:#a61932;}.cls-12{fill:#7f35b2;}.cls-13{opacity:.3;}</style><clipPath id="clippath"><rect class="cls-4" x="876.86" y="1699.42" width="1920" height="1920"/></clipPath><pattern id="Unnamed_Pattern_4" x="0" y="0" width="3674.11" height="5212.21" patternTransform="translate(-36 -903)" patternUnits="userSpaceOnUse" viewBox="0 0 3674.11 5212.21"><g><rect class="cls-4" x="0" y="0" width="3674.11" height="5212.21"/><g class="cls-7"><g><path class="cls-3" d="M1.06,1.06C349.67,349.67,201.64,2154.54,1338.34,1626.01c1136.69-539.78,1350.36-590.38,1423.45-213.66,73.09,376.72,39.36,753.44,466.68,483.55,427.32-269.89,410.45,354.23,444.19,489.17"/><path class="cls-3" d="M6.29,38.4C353.95,383.91,209.79,2178.93,1340.44,1649.85c1130.62-540.27,1343.23-591.25,1416.67-216.92,73.43,374.33,40.52,749,465.44,479.31,424.92-269.69,409.24,350.91,443.06,484.98"/><path class="cls-3" d="M11.52,75.74C358.23,418.16,217.95,2203.32,1342.54,1673.69c1124.55-540.76,1336.11-592.13,1409.89-220.18,73.77,371.95,41.68,744.57,464.2,475.08,422.52-269.49,408.02,347.59,441.93,480.78"/><path class="cls-3" d="M16.76,113.08C362.51,452.41,226.1,2227.72,1344.64,1697.52c1118.48-541.25,1328.99-593,1403.11-223.43,74.11,369.56,42.84,740.14,462.96,470.85,420.12-269.29,406.8,344.27,440.8,476.58"/><path class="cls-3" d="M21.99,150.42C366.79,486.66,234.25,2252.11,1346.74,1721.36c1112.41-541.74,1321.87-593.87,1396.32-226.69,74.45,367.18,44,735.7,461.72,466.61,417.72-269.09,405.58,340.96,439.67,472.39"/><path class="cls-3" d="M27.22,187.76c343.86,333.15,215.18,2088.74,1321.62,1557.44,1106.34-542.23,1314.75-594.74,1389.54-229.95,74.79,364.79,45.16,731.27,460.48,462.38,415.32-268.89,404.37,337.64,438.54,468.19"/><path class="cls-3" d="M32.45,225.1c342.91,330.06,218.1,2075.79,1318.49,1543.93,1100.27-542.72,1307.63-595.62,1382.76-233.21,75.13,362.41,46.32,726.84,459.24,458.14,412.92-268.69,403.15,334.32,437.41,464"/><path class="cls-3" d="M37.68,262.44c341.96,326.97,221.02,2062.84,1315.36,1530.43,1094.2-543.21,1300.51-596.49,1375.98-236.46,75.47,360.03,47.48,722.4,457.99,453.91,410.52-268.5,401.93,331,436.28,459.8"/><path class="cls-3" d="M42.91,299.78c341.01,323.88,223.94,2049.89,1312.23,1516.93,1088.13-543.7,1293.39-597.36,1369.2-239.72,75.81,357.64,48.64,717.97,456.75,449.67,408.12-268.3,400.71,327.69,435.15,455.61"/><path class="cls-3" d="M48.14,337.12c340.06,320.79,226.85,2036.95,1309.1,1503.43,1082.06-544.19,1286.27-598.24,1362.42-242.98,76.15,355.26,49.8,713.54,455.51,445.44,405.71-268.1,399.5,324.37,434.02,451.41"/><path class="cls-3" d="M53.38,374.46c339.11,317.7,229.77,2024,1305.97,1489.92,1075.99-544.67,1279.15-599.11,1355.64-246.24,76.49,352.87,50.96,709.1,454.27,441.21,403.31-267.9,398.28,321.05,432.89,447.21"/><path class="cls-3" d="M58.61,411.8c338.16,314.6,232.69,2011.05,1302.83,1476.42,1069.92-545.16,1272.02-599.98,1348.86-249.49,76.83,350.49,52.12,704.67,453.03,436.97,400.91-267.7,397.06,317.73,431.76,443.02"/><path class="cls-3" d="M63.84,449.14c337.21,311.51,235.61,1998.1,1299.7,1462.92,1063.85-545.65,1264.9-600.85,1342.08-252.75,77.17,348.1,53.28,700.24,451.79,432.74,398.51-267.5,395.84,314.41,430.63,438.82"/><path class="cls-3" d="M69.07,486.48c336.26,308.42,238.53,1985.15,1296.57,1449.42,1057.78-546.14,1257.78-601.73,1335.29-256.01,77.51,345.72,54.44,695.81,450.55,428.5,396.11-267.3,394.63,311.1,429.5,434.63"/><path class="cls-3" d="M74.3,523.82c335.31,305.33,241.45,1972.2,1293.44,1435.91,1051.71-546.63,1250.66-602.6,1328.51-259.27,77.85,343.33,55.6,691.37,449.31,424.27,393.71-267.1,393.41,307.78,428.37,430.43"/><path class="cls-3" d="M79.53,561.16c334.37,302.24,244.37,1959.26,1290.31,1422.41,1045.64-547.12,1243.54-603.47,1321.73-262.53,78.19,340.95,56.76,686.94,448.07,420.03,391.31-266.91,392.19,304.46,427.24,426.24"/><path class="cls-3" d="M84.77,598.5c333.42,299.15,247.29,1946.31,1287.18,1408.91,1039.57-547.61,1236.42-604.35,1314.95-265.78,78.53,338.56,57.92,682.51,446.83,415.8,388.91-266.71,390.97,301.14,426.11,422.04"/><path class="cls-3" d="M90,635.84c332.47,296.06,250.21,1933.36,1284.05,1395.41,1033.5-548.1,1229.3-605.22,1308.17-269.04,78.87,336.18,59.08,678.07,445.59,411.56,386.51-266.51,389.76,297.83,424.98,417.84"/><path class="cls-3" d="M95.23,673.18c331.52,292.97,253.13,1920.41,1280.92,1381.9,1027.43-548.59,1222.18-606.09,1301.39-272.3,79.21,333.79,60.24,673.64,444.34,407.33,384.11-266.31,388.54,294.51,423.85,413.65"/><path class="cls-3" d="M100.46,710.52c330.57,289.88,256.04,1907.46,1277.78,1368.4,1021.36-549.08,1215.06-606.96,1294.61-275.56,79.55,331.41,61.4,669.21,443.1,403.1,381.71-266.11,387.32,291.19,422.72,409.45"/><path class="cls-3" d="M105.69,747.86c329.62,286.79,258.96,1894.51,1274.65,1354.9,1015.29-549.57,1207.94-607.84,1287.83-278.81,79.89,329.02,62.56,664.77,441.86,398.86,379.31-265.91,386.1,287.87,421.59,405.26"/><path class="cls-3" d="M110.92,785.2c328.67,283.7,261.88,1881.57,1271.52,1341.4,1009.22-550.06,1200.82-608.71,1281.04-282.07,80.23,326.64,63.72,660.34,440.62,394.63,376.91-265.71,384.89,284.55,420.46,401.06"/><path class="cls-3" d="M116.15,822.54c327.72,280.6,264.8,1868.62,1268.39,1327.89,1003.15-550.55,1193.69-609.58,1274.26-285.33,80.57,324.25,64.88,655.91,439.38,390.39,374.5-265.51,383.67,281.24,419.33,396.87"/><path class="cls-3" d="M121.39,859.88c326.77,277.51,267.72,1855.67,1265.26,1314.39,997.08-551.04,1186.57-610.46,1267.48-288.59,80.91,321.87,66.04,651.47,438.14,386.16,372.1-265.31,382.45,277.92,418.21,392.67"/><path class="cls-3" d="M126.62,897.22c325.82,274.42,270.64,1842.72,1262.13,1300.89,991.01-551.53,1179.45-611.33,1260.7-291.84,81.25,319.49,67.2,647.04,436.9,381.92,369.7-265.12,381.23,274.6,417.08,388.47"/><path class="cls-3" d="M131.85,934.56c324.87,271.33,273.56,1829.77,1259,1287.39,984.94-552.02,1172.33-612.2,1253.92-295.1,81.59,317.1,68.36,642.61,435.66,377.69,367.3-264.92,380.02,271.28,415.95,384.28"/><path class="cls-3" d="M137.08,971.9c323.92,268.24,276.48,1816.83,1255.87,1273.88,978.87-552.51,1165.21-613.08,1247.14-298.36,81.93,314.72,69.52,638.17,434.42,373.46,364.9-264.72,378.8,267.97,414.82,380.08"/><path class="cls-3" d="M142.31,1009.24c322.97,265.15,279.4,1803.88,1252.74,1260.38,972.8-553,1158.09-613.95,1240.36-301.62,82.27,312.33,70.68,633.74,433.18,369.22,362.5-264.52,377.58,264.65,413.69,375.89"/><path class="cls-3" d="M147.54,1046.58c322.02,262.06,282.32,1790.93,1249.6,1246.88,966.73-553.49,1150.97-614.82,1233.58-304.87,82.61,309.95,71.84,629.31,431.94,364.99,360.1-264.32,376.36,261.33,412.56,371.69"/><path class="cls-3" d="M152.78,1083.92c321.07,258.97,285.24,1777.98,1246.47,1233.38,960.66-553.98,1143.85-615.69,1226.79-308.13,82.95,307.56,73,624.87,430.69,360.75,357.7-264.12,375.15,258.01,411.43,367.49"/><path class="cls-3" d="M158.01,1121.26c320.13,255.88,288.15,1765.03,1243.34,1219.87,954.59-554.47,1136.73-616.57,1220.01-311.39,83.29,305.18,74.16,620.44,429.45,356.52,355.3-263.92,373.93,254.7,410.3,363.3"/><path class="cls-3" d="M163.24,1158.6c319.18,252.79,291.07,1752.08,1240.21,1206.37,948.52-554.96,1129.61-617.44,1213.23-314.65,83.63,302.79,75.32,616.01,428.21,352.28,352.9-263.72,372.71,251.38,409.17,359.1"/><path class="cls-3" d="M168.47,1195.94c318.23,249.69,293.99,1739.14,1237.08,1192.87,942.45-555.45,1122.49-618.31,1206.45-317.9,83.97,300.41,76.48,611.57,426.97,348.05,350.5-263.52,371.49,248.06,408.04,354.91"/><path class="cls-3" d="M173.7,1233.28c317.28,246.6,296.91,1726.19,1233.95,1179.37,936.38-555.94,1115.36-619.19,1199.67-321.16,84.3,298.02,77.64,607.14,425.73,343.81,348.1-263.33,370.28,244.74,406.91,350.71"/><path class="cls-3" d="M178.93,1270.62c316.33,243.51,299.83,1713.24,1230.82,1165.86,930.31-556.43,1108.24-620.06,1192.89-324.42,84.64,295.64,78.8,602.71,424.49,339.58,345.69-263.13,369.06,241.42,405.78,346.52"/><path class="cls-3" d="M184.17,1307.96c315.38,240.42,302.75,1700.29,1227.69,1152.36,924.24-556.92,1101.12-620.93,1186.11-327.68,84.98,293.25,79.95,598.27,423.25,335.35,343.29-262.93,367.84,238.11,404.65,342.32"/><path class="cls-3" d="M189.4,1345.3c314.43,237.33,305.67,1687.34,1224.55,1138.86,918.17-557.41,1094-621.8,1179.33-330.94,85.32,290.87,81.11,593.84,422.01,331.11,340.89-262.73,366.62,234.79,403.52,338.12"/><path class="cls-3" d="M194.63,1382.64c313.48,234.24,308.59,1674.39,1221.42,1125.36,912.1-557.9,1086.88-622.68,1172.54-334.19,85.66,288.48,82.27,589.41,420.77,326.88,338.49-262.53,365.41,231.47,402.39,333.93"/><path class="cls-3" d="M199.86,1419.98c312.53,231.15,311.51,1661.45,1218.29,1111.85,906.03-558.39,1079.76-623.55,1165.76-337.45,86,286.1,83.43,584.97,419.53,322.64,336.09-262.33,364.19,228.15,401.26,329.73"/><path class="cls-3" d="M205.09,1457.32c311.58,228.06,314.43,1648.5,1215.16,1098.35,899.96-558.88,1072.64-624.42,1158.98-340.71,86.34,283.71,84.59,580.54,418.28,318.41,333.69-262.13,362.97,224.84,400.13,325.54"/><path class="cls-3" d="M210.32,1494.66c310.63,224.97,317.34,1635.55,1212.03,1084.85,893.89-559.37,1065.52-625.3,1152.2-343.97,86.68,281.33,85.75,576.11,417.04,314.17,331.29-261.93,361.75,221.52,399,321.34"/><path class="cls-3" d="M215.55,1532c309.68,221.88,320.26,1622.6,1208.9,1071.35,887.82-559.86,1058.4-626.17,1145.42-347.22,87.02,278.95,86.91,571.68,415.8,309.94,328.89-261.74,360.54,218.2,397.87,317.15"/><path class="cls-3" d="M220.79,1569.34c308.73,218.79,323.18,1609.65,1205.77,1057.84,881.75-560.35,1051.28-627.04,1138.64-350.48,87.36,276.56,88.07,567.24,414.56,305.71,326.49-261.54,359.32,214.88,396.74,312.95"/><path class="cls-3" d="M226.02,1606.68c307.78,215.69,326.1,1596.7,1202.64,1044.34,875.68-560.84,1044.15-627.91,1131.86-353.74,87.7,274.18,89.23,562.81,413.32,301.47,324.09-261.34,358.1,211.56,395.61,308.75"/><path class="cls-3" d="M231.25,1644.02c306.84,212.6,329.02,1583.76,1199.5,1030.84,869.61-561.33,1037.03-628.79,1125.08-357,88.04,271.79,90.39,558.38,412.08,297.24,321.69-261.14,356.88,208.25,394.48,304.56"/><path class="cls-3" d="M236.48,1681.36c305.89,209.51,331.94,1570.81,1196.37,1017.34,863.54-561.82,1029.91-629.66,1118.29-360.25,88.38,269.41,91.55,553.94,410.84,293,319.29-260.94,355.67,204.93,393.35,300.36"/><path class="cls-3" d="M241.71,1718.7c304.94,206.42,334.86,1557.86,1193.24,1003.83,857.47-562.31,1022.79-630.53,1111.51-363.51,88.72,267.02,92.71,549.51,409.6,288.77,316.88-260.74,354.45,201.61,392.22,296.17"/><path class="cls-3" d="M246.94,1756.04c303.99,203.33,337.78,1544.91,1190.11,990.33,851.4-562.8,1015.67-631.41,1104.73-366.77,89.06,264.64,93.87,545.08,408.36,284.53,314.48-260.54,353.23,198.29,391.09,291.97"/><path class="cls-3" d="M252.18,1793.38c303.04,200.24,340.7,1531.96,1186.98,976.83,845.33-563.29,1008.55-632.28,1097.95-370.03,89.4,262.25,95.03,540.64,407.12,280.3,312.08-260.34,352.01,194.98,389.96,287.78"/><path class="cls-3" d="M257.41,1830.72c302.09,197.15,343.62,1519.02,1183.85,963.33,839.25-563.78,1001.43-633.15,1091.17-373.28,89.74,259.87,96.19,536.21,405.88,276.07,309.68-260.14,350.8,191.66,388.83,283.58"/><path class="cls-3" d="M262.64,1868.06c301.14,194.06,346.54,1506.07,1180.72,949.82,833.18-564.27,994.31-634.02,1084.39-376.54,90.08,257.48,97.35,531.78,404.63,271.83,307.28-259.95,349.58,188.34,387.7,279.38"/><path class="cls-3" d="M267.87,1905.4c300.19,190.97,349.45,1493.12,1177.59,936.32,827.11-564.76,987.19-634.9,1077.61-379.8,90.42,255.1,98.51,527.34,403.39,267.6,304.88-259.75,348.36,185.02,386.57,275.19"/><path class="cls-3" d="M273.1,1942.74c299.24,187.88,352.37,1480.17,1174.46,922.82,821.04-565.25,980.07-635.77,1070.83-383.06,90.76,252.71,99.67,522.91,402.15,263.36,302.48-259.55,347.14,181.7,385.44,270.99"/><path class="cls-3" d="M278.33,1980.08c298.29,184.78,355.29,1467.22,1171.32,909.32,814.97-565.74,972.95-636.64,1064.04-386.31,91.1,250.33,100.83,518.48,400.91,259.13,300.08-259.35,345.93,178.39,384.31,266.8"/><path class="cls-3" d="M283.56,2017.42c297.34,181.69,358.21,1454.27,1168.19,895.81,808.9-566.23,965.82-637.52,1057.26-389.57,91.44,247.94,101.99,514.04,399.67,254.89,297.68-259.15,344.71,175.07,383.18,262.6"/><path class="cls-3" d="M288.8,2054.76c296.39,178.6,361.13,1441.33,1165.06,882.31,802.83-566.72,958.7-638.39,1050.48-392.83,91.78,245.56,103.15,509.61,398.43,250.66,295.28-258.95,343.49,171.75,382.05,258.41"/><path class="cls-3" d="M294.03,2092.1c295.44,175.51,364.05,1428.38,1161.93,868.81,796.76-567.21,951.58-639.26,1043.7-396.09,92.12,243.17,104.31,505.18,397.19,246.42,292.88-258.75,342.27,168.43,380.92,254.21"/><path class="cls-3" d="M299.26,2129.44c294.49,172.42,366.97,1415.43,1158.8,855.31,790.69-567.7,944.46-640.14,1036.92-399.34,92.46,240.79,105.47,500.74,395.95,242.19,290.48-258.55,341.06,165.12,379.79,250.01"/><path class="cls-3" d="M304.49,2166.78c293.54,169.33,369.89,1402.48,1155.67,841.8,784.62-568.19,937.34-641.01,1030.14-402.6,92.8,238.41,106.63,496.31,394.71,237.96,288.07-258.35,339.84,161.8,378.66,245.82"/><path class="cls-3" d="M309.72,2204.12c292.6,166.24,372.81,1389.53,1152.54,828.3,778.55-568.68,930.22-641.88,1023.36-405.86,93.14,236.02,107.79,491.88,393.47,233.72,285.67-258.16,338.62,158.48,377.53,241.62"/><path class="cls-3" d="M314.95,2241.46c291.65,163.15,375.73,1376.58,1149.41,814.8,772.48-569.17,923.1-642.75,1016.58-409.12,93.48,233.64,108.95,487.44,392.23,229.49,283.27-257.96,337.4,155.16,376.4,237.43"/><path class="cls-3" d="M320.19,2278.8c290.7,160.06,378.64,1363.64,1146.27,801.3,766.41-569.66,915.98-643.63,1009.79-412.38,93.82,231.25,110.11,483.01,390.98,225.25,280.87-257.76,336.19,151.84,375.27,233.23"/><path class="cls-3" d="M325.42,2316.14c289.75,156.97,381.56,1350.69,1143.14,787.79,760.34-570.15,908.86-644.5,1003.01-415.63,94.16,228.87,111.27,478.58,389.74,221.02,278.47-257.56,334.97,148.53,374.14,229.04"/><path class="cls-3" d="M330.65,2353.48c288.8,153.88,384.48,1337.74,1140.01,774.29,754.27-570.64,901.74-645.37,996.23-418.89,94.5,226.48,112.43,474.14,388.5,216.78,276.07-257.36,333.75,145.21,373.01,224.84"/><path class="cls-3" d="M335.88,2390.82c287.85,150.78,387.4,1324.79,1136.88,760.79,748.2-571.13,894.62-646.25,989.45-422.15,94.84,224.1,113.59,469.71,387.26,212.55,273.67-257.16,332.53,141.89,371.88,220.64"/><path class="cls-3" d="M341.11,2428.16c286.9,147.69,390.32,1311.84,1133.75,747.29,742.13-571.62,887.49-647.12,982.67-425.41,95.18,221.71,114.75,465.28,386.02,208.32,271.27-256.96,331.32,138.57,370.75,216.45"/><path class="cls-3" d="M346.34,2465.5c285.95,144.6,393.24,1298.89,1130.62,733.78,736.06-572.11,880.37-647.99,975.89-428.66,95.52,219.33,115.91,460.84,384.78,204.08,268.87-256.76,330.1,135.26,369.62,212.25"/><path class="cls-3" d="M351.57,2502.84c285,141.51,396.16,1285.95,1127.49,720.28,729.99-572.6,873.25-648.86,969.11-431.92,95.85,216.94,117.07,456.41,383.54,199.85,266.47-256.57,328.88,131.94,368.49,208.06"/><path class="cls-3" d="M356.81,2540.18c284.05,138.42,399.08,1273,1124.36,706.78,723.92-573.09,866.13-649.74,962.33-435.18,96.19,214.56,118.23,451.98,382.3,195.61,264.07-256.37,327.66,128.62,367.36,203.86"/><path class="cls-3" d="M362.04,2577.52c283.1,135.33,402,1260.05,1121.22,693.28,717.85-573.58,859.01-650.61,955.54-438.44,96.53,212.17,119.39,447.55,381.06,191.38,261.67-256.17,326.45,125.3,366.23,199.67"/><path class="cls-3" d="M367.27,2614.86c282.15,132.24,404.92,1247.1,1118.09,679.77,711.78-574.07,851.89-651.48,948.76-441.69,96.87,209.79,120.55,443.11,379.82,187.14,259.26-255.97,325.23,121.98,365.1,195.47"/><path class="cls-3" d="M372.5,2652.2c281.2,129.15,407.83,1234.15,1114.96,666.27,705.71-574.56,844.77-652.36,941.98-444.95,97.21,207.4,121.71,438.68,378.58,182.91,256.86-255.77,324.01,118.67,363.97,191.27"/><path class="cls-3" d="M377.73,2689.54c280.25,126.06,410.75,1221.21,1111.83,652.77,699.64-575.05,837.65-653.23,935.2-448.21,97.55,205.02,122.87,434.25,377.33,178.67,254.46-255.57,322.79,115.35,362.85,187.08"/><path class="cls-3" d="M382.96,2726.88c279.31,122.97,413.67,1208.26,1108.7,639.27,693.57-575.54,830.53-654.1,928.42-451.47,97.89,202.63,124.03,429.81,376.09,174.44,252.06-255.37,321.58,112.03,361.72,182.88"/><path class="cls-3" d="M388.2,2764.22c278.36,119.87,416.59,1195.31,1105.57,625.76,687.5-576.03,823.41-654.97,921.64-454.72,98.23,200.25,125.19,425.38,374.85,170.21,249.66-255.17,320.36,108.71,360.59,178.69"/><path class="cls-3" d="M393.43,2801.56c277.41,116.78,419.51,1182.36,1102.44,612.26,681.43-576.52,816.28-655.85,914.86-457.98,98.57,197.87,126.35,420.95,373.61,165.97,247.26-254.97,319.14,105.4,359.46,174.49"/><path class="cls-3" d="M398.66,2838.9c276.46,113.69,422.43,1169.41,1099.31,598.76,675.36-577.01,809.16-656.72,908.08-461.24,98.91,195.48,127.51,416.51,372.37,161.74,244.86-254.78,317.92,102.08,358.33,170.29"/><path class="cls-3" d="M403.89,2876.24c275.51,110.6,425.35,1156.46,1096.18,585.26,669.29-577.5,802.04-657.59,901.29-464.5,99.25,193.1,128.67,412.08,371.13,157.5,242.46-254.58,316.71,98.76,357.2,166.1"/><path class="cls-3" d="M409.12,2913.58c274.56,107.51,428.27,1143.52,1093.04,571.75,663.22-577.99,794.92-658.47,894.51-467.75,99.59,190.71,129.83,407.65,369.89,153.27,240.06-254.38,315.49,95.44,356.07,161.9"/><path class="cls-3" d="M414.35,2950.92c273.61,104.42,431.19,1130.57,1089.91,558.25,657.15-578.48,787.8-659.34,887.73-471.01,99.93,188.33,130.99,403.21,368.65,149.03,237.66-254.18,314.27,92.13,354.94,157.71"/><path class="cls-3" d="M419.59,2988.26c272.66,101.33,434.11,1117.62,1086.78,544.75,651.08-578.97,780.68-660.21,880.95-474.27,100.27,185.94,132.15,398.78,367.41,144.8,235.26-253.98,313.05,88.81,353.81,153.51"/><path class="cls-3" d="M424.82,3025.6c271.71,98.24,437.03,1104.67,1083.65,531.25,645.01-579.46,773.56-661.08,874.17-477.53,100.61,183.56,133.31,394.35,366.17,140.57,232.86-253.78,311.84,85.49,352.68,149.32"/><path class="cls-3" d="M430.05,3062.94c270.76,95.15,439.94,1091.72,1080.52,517.74,638.94-579.95,766.44-661.96,867.39-480.79,100.95,181.17,134.47,389.91,364.93,136.33,230.46-253.58,310.62,82.17,351.55,145.12"/><path class="cls-3" d="M435.28,3100.28c269.81,92.06,442.86,1078.77,1077.39,504.24,632.87-580.44,759.32-662.83,860.61-484.04,101.29,178.79,135.63,385.48,363.68,132.1,228.05-253.38,309.4,78.85,350.42,140.92"/><path class="cls-3" d="M440.51,3137.62c268.86,88.97,445.78,1065.83,1074.26,490.74,626.8-580.93,752.2-663.7,853.83-487.3,101.63,176.4,136.79,381.05,362.44,127.86,225.65-253.18,308.18,75.54,349.29,136.73"/><path class="cls-3" d="M445.74,3174.96c267.91,85.87,448.7,1052.88,1071.13,477.24,620.73-581.42,745.08-664.58,847.04-490.56,101.97,174.02,137.95,376.61,361.2,123.63,223.25-252.99,306.97,72.22,348.16,132.53"/><path class="cls-3" d="M450.97,3212.3c266.96,82.78,451.62,1039.93,1067.99,463.73,614.66-581.91,737.95-665.45,840.26-493.82,102.31,171.63,139.11,372.18,359.96,119.39,220.85-252.79,305.75,68.9,347.03,128.34"/><path class="cls-3" d="M456.21,3249.64c266.01,79.69,454.54,1026.98,1064.86,450.23,608.59-582.4,730.83-666.32,833.48-497.07,102.65,169.25,140.27,367.75,358.72,115.16,218.45-252.59,304.53,65.58,345.9,124.14"/><path class="cls-3" d="M461.44,3286.98c265.07,76.6,457.46,1014.03,1061.73,436.73,602.52-582.89,723.71-667.2,826.7-500.33,102.99,166.86,141.43,363.31,357.48,110.92,216.05-252.39,303.31,62.27,344.77,119.95"/><path class="cls-3" d="M466.67,3324.32c264.12,73.51,460.38,1001.09,1058.6,423.23,596.45-583.38,716.59-668.07,819.92-503.59,103.33,164.48,142.59,358.88,356.24,106.69,213.65-252.19,302.1,58.95,343.64,115.75"/><path class="cls-3" d="M471.9,3361.66c263.17,70.42,463.3,988.14,1055.47,409.72,590.38-583.87,709.47-668.94,813.14-506.85,103.67,162.09,143.75,354.45,355,102.46,211.25-251.99,300.88,55.63,342.51,111.55"/><path class="cls-3" d="M477.13,3399c262.22,67.33,466.22,975.19,1052.34,396.22,584.31-584.36,702.35-669.81,806.36-510.1,104.01,159.71,144.91,350.01,353.76,98.22,208.85-251.79,299.66,52.31,341.38,107.36"/><path class="cls-3" d="M482.36,3436.34c261.27,64.24,469.13,962.24,1049.21,382.72,578.24-584.85,695.23-670.69,799.58-513.36,104.35,157.33,146.07,345.58,352.52,93.99,206.45-251.59,298.44,48.99,340.25,103.16"/><path class="cls-3" d="M487.6,3473.68c260.32,61.15,472.05,949.29,1046.08,369.22,572.17-585.34,688.11-671.56,792.8-516.62,104.69,154.94,147.23,341.15,351.27,89.75,204.05-251.4,297.23,45.68,339.12,98.97"/><path class="cls-3" d="M492.83,3511.02c259.37,58.06,474.97,936.34,1042.95,355.71,566.1-585.83,680.99-672.43,786.01-519.88,105.03,152.56,148.39,336.72,350.03,85.52,201.65-251.2,296.01,42.36,337.99,94.77"/><path class="cls-3" d="M498.06,3548.36c258.42,54.96,477.89,923.4,1039.81,342.21,560.03-586.32,673.87-673.31,779.23-523.13,105.37,150.17,149.55,332.28,348.79,81.28,199.24-251,294.79,39.04,336.86,90.58"/><path class="cls-3" d="M503.29,3585.7c257.47,51.87,480.81,910.45,1036.68,328.71,553.96-586.81,666.74-674.18,772.45-526.39,105.71,147.79,150.71,327.85,347.55,77.05,196.84-250.8,293.57,35.72,335.73,86.38"/><path class="cls-3" d="M508.52,3623.04c256.52,48.78,483.73,897.5,1033.55,315.21,547.89-587.3,659.62-675.05,765.67-529.65,106.05,145.4,151.87,323.42,346.31,72.82,194.44-250.6,292.36,32.41,334.6,82.18"/><path class="cls-3" d="M513.75,3660.38c255.57,45.69,486.65,884.55,1030.42,301.7,541.82-587.79,652.5-675.92,758.89-532.91,106.39,143.02,153.03,318.98,345.07,68.58,192.04-250.4,291.14,29.09,333.47,77.99"/><path class="cls-3" d="M518.98,3697.72c254.62,42.6,489.57,871.6,1027.29,288.2,535.75-588.28,645.38-676.8,752.11-536.16,106.73,140.63,154.19,314.55,343.83,64.35,189.64-250.2,289.92,25.77,332.34,73.79"/><path class="cls-3" d="M524.22,3735.06c253.67,39.51,492.49,858.65,1024.16,274.7,529.68-588.77,638.26-677.67,745.33-539.42,107.07,138.25,155.35,310.12,342.59,60.11,187.24-250,288.7,22.45,331.21,69.6"/><path class="cls-3" d="M529.45,3772.4c252.72,36.42,495.41,845.71,1021.03,261.2,523.61-589.26,631.14-678.54,738.55-542.68,107.41,135.86,156.51,305.68,341.35,55.88,184.84-249.8,287.49,19.13,330.08,65.4"/><path class="cls-3" d="M534.68,3809.74c251.78,33.33,498.33,832.76,1017.9,247.69,517.54-589.75,624.02-679.42,731.76-545.94,107.74,133.48,157.67,301.25,340.11,51.64,182.44-249.61,286.27,15.82,328.95,61.21"/><path class="cls-3" d="M539.91,3847.08c250.83,30.24,501.24,819.81,1014.76,234.19,511.46-590.24,616.9-680.29,724.98-549.19,108.08,131.09,158.83,296.82,338.87,47.41,180.04-249.41,285.05,12.5,327.82,57.01"/><path class="cls-3" d="M545.14,3884.42c249.88,27.15,504.16,806.86,1011.63,220.69,505.39-590.73,609.78-681.16,718.2-552.45,108.42,128.71,159.99,292.38,337.62,43.17,177.64-249.21,283.83,9.18,326.69,52.81"/><path class="cls-3" d="M550.37,3921.76c248.93,24.06,507.08,793.91,1008.5,207.19,499.32-591.22,602.66-682.03,711.42-555.71,108.76,126.32,161.15,287.95,336.38,38.94,175.24-249.01,282.62,5.86,325.56,48.62"/><path class="cls-3" d="M555.61,3959.1c247.98,20.96,510,780.96,1005.37,193.68,493.25-591.71,595.54-682.91,704.64-558.97,109.1,123.94,162.31,283.52,335.14,34.71,172.84-248.81,281.4,2.55,324.43,44.42"/><path class="cls-3" d="M560.84,3996.44c247.03,17.87,512.92,768.02,1002.24,180.18,487.18-592.2,588.41-683.78,697.86-562.23,109.44,121.55,163.47,279.08,333.9,30.47,170.43-248.61,280.18-.77,323.3,40.23"/><path class="cls-3" d="M566.07,4033.78c246.08,14.78,515.84,755.07,999.11,166.68,481.11-592.69,581.29-684.65,691.08-565.48,109.78,119.17,164.63,274.65,332.66,26.24,168.03-248.41,278.96-4.09,322.17,36.03"/><path class="cls-3" d="M571.3,4071.12c245.13,11.69,518.76,742.12,995.98,153.18,475.04-593.18,574.17-685.53,684.3-568.74,110.12,116.79,165.79,270.22,331.42,22,165.63-248.21,277.75-7.41,321.04,31.84"/><path class="cls-3" d="M576.53,4108.46c244.18,8.6,521.68,729.17,992.85,139.67,468.97-593.67,567.05-686.4,677.51-572,110.46,114.4,166.95,265.78,330.18,17.77,163.23-248.02,276.53-10.73,319.91,27.64"/><path class="cls-3" d="M581.76,4145.8c243.23,5.51,524.6,716.22,989.71,126.17,462.9-594.16,559.93-687.27,670.73-575.26,110.8,112.02,168.11,261.35,328.94,13.53,160.83-247.82,275.31-14.04,318.78,23.44"/><path class="cls-3" d="M586.99,4183.14c242.28,2.42,527.52,703.28,986.58,112.67,456.83-594.65,552.81-688.14,663.95-578.51,111.14,109.63,169.27,256.92,327.7,9.3,158.43-247.62,274.09-17.36,317.65,19.25"/><path class="cls-3" d="M592.23,4220.48c241.33-.67,530.43,690.33,983.45,99.17,450.76-595.14,545.69-689.02,657.17-581.77,111.48,107.25,170.43,252.48,326.46,5.07,156.03-247.42,272.88-20.68,316.52,15.05"/><path class="cls-3" d="M597.46,4257.82c240.38-3.76,533.35,677.38,980.32,85.66,444.69-595.63,538.57-689.89,650.39-585.03,111.82,104.86,171.59,248.05,325.22,.83,153.63-247.22,271.66-24,315.39,10.86"/><path class="cls-3" d="M602.69,4295.16c239.43-6.85,536.27,664.43,977.19,72.16,438.62-596.12,531.45-690.76,643.61-588.29,112.16,102.48,172.75,243.62,323.97-3.4,151.23-247.02,270.44-27.31,314.26,6.66"/><path class="cls-3" d="M607.92,4332.5c238.48-9.95,539.19,651.48,974.06,58.66,432.55-596.61,524.33-691.64,636.83-591.54,112.5,100.09,173.91,239.18,322.73-7.64,148.83-246.82,269.22-30.63,313.13,2.47"/><path class="cls-3" d="M613.15,4369.84c237.54-13.04,542.11,638.53,970.93,45.16,426.48-597.1,517.21-692.51,630.05-594.8,112.84,97.71,175.07,234.75,321.49-11.87,146.43-246.62,268.01-33.95,312-1.73"/><path class="cls-3" d="M618.38,4407.18c236.59-16.13,545.03,625.59,967.8,31.65,420.41-597.59,510.08-693.38,623.26-598.06,113.18,95.32,176.23,230.32,320.25-16.11,144.03-246.42,266.79-37.27,310.87-5.93"/><path class="cls-3" d="M623.62,4444.52c235.64-19.22,547.95,612.64,964.67,18.15,414.34-598.08,502.96-694.26,616.48-601.32,113.52,92.94,177.39,225.88,319.01-20.34,141.62-246.23,265.57-40.59,309.74-10.12"/><path class="cls-3" d="M628.85,4481.86c234.69-22.31,550.87,599.69,961.53,4.65,408.27-598.57,495.84-695.13,609.7-604.57,113.86,90.55,178.55,221.45,317.77-24.57,139.22-246.03,264.35-43.9,308.62-14.32"/><path class="cls-3" d="M634.08,4519.2c233.74-25.4,553.79,586.74,958.4-8.85,402.2-599.06,488.72-696,602.92-607.83,114.2,88.17,179.71,217.02,316.53-28.81,136.82-245.83,263.14-47.22,307.49-18.51"/><path class="cls-3" d="M639.31,4556.54c232.79-28.49,556.71,573.79,955.27-22.36,396.13-599.55,481.6-696.87,596.14-611.09,114.54,85.78,180.87,212.59,315.29-33.04,134.42-245.63,261.92-50.54,306.36-22.71"/><path class="cls-3" d="M644.54,4593.88c231.84-31.58,559.62,560.84,952.14-35.86,390.06-600.04,474.48-697.75,589.36-614.35,114.88,83.4,182.03,208.15,314.05-37.28,132.02-245.43,260.7-53.86,305.23-26.91"/><path class="cls-3" d="M649.77,4631.22c230.89-34.67,562.54,547.9,949.01-49.36,383.99-600.53,467.36-698.62,582.58-617.6,115.22,81.01,183.19,203.72,312.81-41.51,129.62-245.23,259.48-57.17,304.1-31.1"/><path class="cls-3" d="M655.01,4668.56c229.94-37.76,565.46,534.95,945.88-62.86,377.92-601.02,460.24-699.49,575.8-620.86,115.56,78.63,184.35,199.29,311.57-45.75,127.22-245.03,258.27-60.49,302.97-35.3"/><path class="cls-3" d="M660.24,4705.9c228.99-40.85,568.38,522,942.75-76.37,371.85-601.51,453.12-700.37,569.01-624.12,115.9,76.25,185.51,194.85,310.32-49.98,124.82-244.83,257.05-63.81,301.84-39.49"/><path class="cls-3" d="M665.47,4743.24c228.04-43.95,571.3,509.05,939.62-89.87,365.78-602,446-701.24,562.23-627.38,116.24,73.86,186.67,190.42,309.08-54.22,122.42-244.63,255.83-67.13,300.71-43.69"/><path class="cls-3" d="M670.7,4780.58c227.09-47.04,574.22,496.1,936.48-103.37,359.71-602.49,438.87-702.11,555.45-630.64,116.58,71.48,187.83,185.99,307.84-58.45,120.02-244.44,254.61-70.44,299.58-47.88"/><path class="cls-3" d="M675.93,4817.92c226.14-50.13,577.14,483.15,933.35-116.87,353.64-602.98,431.75-702.98,548.67-633.89,116.92,69.09,188.99,181.55,306.6-62.68,117.62-244.24,253.4-73.76,298.45-52.08"/><path class="cls-3" d="M681.16,4855.26c225.19-53.22,580.06,470.21,930.22-130.38,347.57-603.47,424.63-703.86,541.89-637.15,117.26,66.71,190.15,177.12,305.36-66.92,115.22-244.04,252.18-77.08,297.32-56.28"/><path class="cls-3" d="M686.39,4892.6c224.24-56.31,582.98,457.26,927.09-143.88,341.5-603.96,417.51-704.73,535.11-640.41,117.6,64.32,191.3,172.69,304.12-71.15,112.81-243.84,250.96-80.4,296.19-60.47"/><path class="cls-3" d="M691.63,4929.94c223.3-59.4,585.9,444.31,923.96-157.38,335.43-604.45,410.39-705.6,528.33-643.67,117.94,61.94,192.46,168.25,302.88-75.39,110.41-243.64,249.74-83.72,295.06-64.67"/><path class="cls-3" d="M696.86,4967.28c222.35-62.49,588.82,431.36,920.83-170.88,329.36-604.94,403.27-706.48,521.55-646.92,118.28,59.55,193.62,163.82,301.64-79.62,108.01-243.44,248.53-87.03,293.93-68.86"/><path class="cls-3" d="M702.09,5004.62c221.4-65.58,591.73,418.41,917.7-184.39,323.29-605.43,396.15-707.35,514.76-650.18,118.62,57.17,194.78,159.39,300.4-83.86,105.61-243.24,247.31-90.35,292.8-73.06"/><path class="cls-3" d="M707.32,5041.96c220.45-68.67,594.65,405.47,914.57-197.89,317.22-605.92,389.03-708.22,507.98-653.44,118.96,54.78,195.94,154.95,299.16-88.09,103.21-243.04,246.09-93.67,291.67-77.25"/><path class="cls-3" d="M712.55,5079.3c219.5-71.76,597.57,392.52,911.43-211.39,311.15-606.41,381.91-709.09,501.2-656.7,119.29,52.4,197.1,150.52,297.92-92.32,100.81-242.85,244.87-96.99,290.54-81.45"/><path class="cls-3" d="M717.78,5116.64c218.55-74.86,600.49,379.57,908.3-224.89,305.08-606.9,374.79-709.97,494.42-659.95,119.63,50.01,198.26,146.09,296.67-96.56,98.41-242.65,243.66-100.3,289.41-85.65"/></g></g></g></pattern></defs><path class="cls-1" d="M332,332v-.26c-1.04,.09-2.07,.17-3.11,.26h3.11Z"/><g><rect class="cls-8" y="284" width="284" height="48"/><rect class="cls-10" x="284" width="48" height="284"/><rect class="cls-12" x="284" y="284" width="48" height="48"/><g id="Top"><rect class="cls-9" y="284" width="284" height="48"/><rect class="cls-9" x="284" width="48" height="284"/><rect class="cls-9" x="284" y="284" width="48" height="48"/></g><g class="cls-13"><path class="cls-1" d="M328.89,332c1.04-.09,2.07-.17,3.11-.26v-3.07c-14.49,1.21-28.86,2.32-43.13,3.33h40.02Z"/><path class="cls-1" d="M284,291.3c15.86-1.2,31.86-2.51,48-3.95v-3.07c-16.14,1.43-32.13,2.73-48,3.91v3.12Z"/><path class="cls-1" d="M284,320.74c15.86-1.14,31.85-2.4,48-3.79v-3.07c-16.14,1.38-32.14,2.63-48,3.75v3.1Z"/><path class="cls-1" d="M284,306.02c15.86-1.17,31.85-2.45,48-3.87v-3.07c-16.14,1.4-32.13,2.67-48,3.82v3.12Z"/></g><g class="cls-2"><path class="cls-11" d="M61.52,285.57c13.24,0,26.59-.1,40.03-.31,16.5-.26,33.21-.68,50.11-1.26H0v.78c20.26,.51,40.77,.79,61.52,.79Z"/><path class="cls-11" d="M104.87,299.61c57.34-.85,117.13-3.64,179.13-8.31v-3.12c-100.02,7.44-194.65,9.9-284,7.35v3.44c21.96,.61,44.2,.93,66.75,.93,12.61,0,25.33-.1,38.12-.29Z"/><path class="cls-11" d="M111.52,328.3c55.28-.74,112.85-3.27,172.48-7.56v-3.1c-70.75,5.02-138.77,7.54-204.12,7.54-27.09,0-53.71-.44-79.88-1.3v3.45c25.35,.81,51.11,1.22,77.25,1.22,11.35,0,22.78-.08,34.27-.23Z"/><path class="cls-11" d="M108.19,313.95c56.31-.79,114.99-3.45,175.81-7.93v-3.12c-100.05,7.27-194.68,9.55-284,6.8v3.44c23.66,.71,47.66,1.07,72,1.07,11.98,0,24.05-.09,36.2-.26Z"/></g><g class="cls-5"><path class="cls-6" d="M332,153.93v-3.02c-16.13,1.68-32.13,3.24-48,4.67v3c15.87-1.43,31.86-2.98,48-4.66Z"/><path class="cls-6" d="M332,109.32v-3.01c-16.13,1.75-32.13,3.39-48,4.9v3.01c15.87-1.51,31.87-3.15,48-4.9Z"/><path class="cls-6" d="M332,139.07v-3.02c-16.13,1.7-32.13,3.29-48,4.75v3c15.87-1.46,31.86-3.03,48-4.73Z"/><path class="cls-6" d="M332,168.69v-3.07c-16.13,1.64-32.13,3.15-48,4.55v3.1c15.87-1.41,31.86-2.93,48-4.58Z"/><path class="cls-6" d="M332,183.54v-3.07c-16.13,1.61-32.13,3.1-48,4.47v3.1c15.87-1.38,31.86-2.88,48-4.5Z"/><path class="cls-6" d="M332,46.78c-16.13,1.85-32.13,3.59-48,5.2v2.92c15.87-1.61,31.86-3.33,48-5.18v-2.94Z"/><path class="cls-6" d="M332,198.38v-3.07c-16.13,1.59-32.13,3.06-48,4.4v3.11c15.86-1.35,31.86-2.83,48-4.43Z"/><path class="cls-6" d="M332,64.61v-2.94c-16.13,1.83-32.13,3.53-48,5.11v2.93c15.86-1.58,31.86-3.28,48-5.11Z"/><path class="cls-6" d="M332,94.45v-3.01c-16.13,1.78-32.13,3.44-48,4.98v3.01c15.87-1.53,31.87-3.2,48-4.98Z"/><path class="cls-6" d="M332,79.49v-2.94c-16.13,1.8-32.13,3.49-48,5.05v2.92c15.86-1.56,31.86-3.24,48-5.04Z"/><path class="cls-6" d="M332,124.2v-3.01c-16.13,1.73-32.13,3.34-48,4.82v3c15.87-1.48,31.87-3.09,48-4.82Z"/><path class="cls-6" d="M284,7.47v2.93c15.87-1.68,31.87-3.48,48-5.39V2.06c-16.12,1.92-32.13,3.73-48,5.41Z"/><path class="cls-6" d="M284,22.31v2.92c15.86-1.66,31.87-3.43,48-5.33v-2.94c-16.13,1.9-32.13,3.68-48,5.34Z"/><path class="cls-6" d="M332,213.22v-3.07c-16.13,1.56-32.13,3-48,4.31v3.11c15.86-1.33,31.86-2.79,48-4.36Z"/><path class="cls-6" d="M332,242.88v-3.06c-16.13,1.51-32.13,2.89-48,4.16v3.11c15.86-1.28,31.86-2.68,48-4.2Z"/><path class="cls-6" d="M332,228.05v-3.06c-16.14,1.54-32.13,2.94-48,4.23v3.11c15.86-1.3,31.86-2.73,48-4.28Z"/><path class="cls-6" d="M332,257.71v-3.07c-16.13,1.48-32.14,2.85-48,4.09v3.1c15.86-1.25,31.86-2.62,48-4.12Z"/><path class="cls-6" d="M284,40.08c15.86-1.63,31.87-3.39,48-5.26v-2.94c-16.13,1.87-32.13,3.63-48,5.27v2.93Z"/><path class="cls-6" d="M332,272.53v-3.07c-16.13,1.46-32.14,2.8-48,4v3.11c15.86-1.22,31.86-2.57,48-4.04Z"/></g></g></svg>