<?xml version="1.0" encoding="UTF-8"?><svg id="Web" xmlns="http://www.w3.org/2000/svg" viewBox="0 0 332 332"><defs><style>.cls-1{fill:#48086f;}.cls-2{fill:#327fef;}.cls-3{opacity:.2;}.cls-4{fill:#1d418e;}.cls-5{fill:#3adcc9;}.cls-6{fill:#007d61;}.cls-7{fill:#7f35b2;}.cls-8{opacity:.25;}.cls-9{opacity:.3;}</style></defs><g><rect class="cls-2" x="48" width="284" height="48"/><rect class="cls-5" y="48" width="48" height="284"/><rect class="cls-7" width="48" height="48" transform="translate(48 48) rotate(180)"/></g><g><g class="cls-8"><path class="cls-4" d="M265.42,48c21.9-1.21,44.09-2.67,66.58-4.37v-3.08c-48.43,3.63-95.59,6.11-141.49,7.45h74.91Z"/><path class="cls-4" d="M48,5.68v3.4c14.92,.28,29.97,.42,45.16,.42,9.39,0,18.85-.05,28.34-.16,64.31-.71,131.73-3.84,201.94-9.35h-43.42C199.07,5.21,121.75,7.11,48,5.68Z"/><path class="cls-4" d="M48,34.14v3.39c18.41,.42,37.01,.64,55.83,.64,8.07,0,16.18-.04,24.32-.12,64.87-.61,132.94-3.69,203.85-9.19v-3.07c-78.48,6.02-153.63,9.04-225.52,9.04-19.74,0-39.23-.24-58.48-.69Z"/><path class="cls-4" d="M48,19.92v3.39c16.65,.35,33.47,.52,50.46,.52,8.74,0,17.53-.05,26.36-.14,65.89-.68,135.08-3.9,207.18-9.61v-3.07c-80.42,6.31-157.36,9.48-230.88,9.48-17.91,0-35.61-.2-53.12-.58Z"/></g><g class="cls-9"><path class="cls-1" d="M0,46.6v1.4H35.84c-12.04-.38-23.99-.84-35.84-1.4Z"/><path class="cls-1" d="M48,5.68c-16.17-.31-32.17-.78-48-1.41v3.43c15.84,.62,31.84,1.07,48,1.38v-3.4Z"/><path class="cls-1" d="M48,34.14c-16.17-.38-32.18-.92-48-1.62v3.43c15.84,.69,31.84,1.21,48,1.58v-3.39Z"/><path class="cls-1" d="M48,19.92c-16.17-.35-32.17-.86-48-1.53v3.44c15.84,.65,31.84,1.15,48,1.48v-3.39Z"/></g><g class="cls-3"><path class="cls-6" d="M0,106.3c15.83,.88,31.83,1.59,48,2.14v-3.39c-16.18-.57-32.18-1.3-48-2.19v3.43Z"/><path class="cls-6" d="M0,78.2c15.83,.8,31.83,1.44,48,1.91v-3.39c-16.18-.49-32.18-1.15-48-1.97v3.44Z"/><path class="cls-6" d="M0,92.26c15.83,.84,31.83,1.51,48,2.02v-3.38c-16.18-.53-32.18-1.22-48-2.08v3.44Z"/><path class="cls-6" d="M0,134.37c15.83,.95,31.83,1.74,48,2.36v-3.38c-16.18-.64-32.18-1.45-48-2.42v3.43Z"/><path class="cls-6" d="M0,148.38c15.83,.99,31.83,1.82,48,2.48v-3.38c-16.18-.68-32.18-1.53-48-2.53v3.43Z"/><path class="cls-6" d="M0,120.34c15.83,.91,31.83,1.66,48,2.25v-3.38c-16.18-.6-32.18-1.37-48-2.3v3.43Z"/><path class="cls-6" d="M0,48v2.04c15.83,.73,31.84,1.29,48,1.69v-3.39c-4.06-.11-8.12-.22-12.16-.35H0Z"/><path class="cls-6" d="M0,64.12c15.84,.76,31.83,1.37,48,1.81v-3.39c-16.18-.46-32.17-1.09-48-1.86v3.45Z"/><path class="cls-6" d="M0,162.38c15.82,1.03,31.83,1.9,48,2.6v-3.38c-16.18-.72-32.18-1.6-48-2.65v3.43Z"/><path class="cls-6" d="M0,287.82c15.81,1.39,31.81,2.62,48,3.67v-3.37c-16.2-1.07-32.19-2.32-48-3.73v3.43Z"/><path class="cls-6" d="M0,301.7c15.8,1.43,31.81,2.7,48,3.8v-3.37c-16.19-1.11-32.2-2.39-48-3.85v3.42Z"/><path class="cls-6" d="M0,273.94c15.81,1.35,31.81,2.54,48,3.55v-3.37c-16.2-1.03-32.19-2.24-48-3.61v3.43Z"/><path class="cls-6" d="M0,329.4c9.66,.93,19.38,1.8,29.19,2.6h18.81v-1.91c-16.2-1.2-32.2-2.57-48-4.11v3.42Z"/><path class="cls-6" d="M0,315.56c15.8,1.48,31.81,2.78,48,3.92v-3.38c-16.2-1.16-32.2-2.47-48-3.97v3.43Z"/><path class="cls-6" d="M0,260.04c15.81,1.31,31.81,2.45,48,3.43v-3.37c-16.19-.99-32.19-2.16-48-3.48v3.42Z"/><path class="cls-6" d="M0,204.31c15.82,1.15,31.82,2.13,48,2.95v-3.37c-16.19-.83-32.19-1.84-48-3v3.43Z"/><path class="cls-6" d="M0,176.36c15.82,1.07,31.82,1.98,48,2.71v-3.37c-16.19-.75-32.18-1.68-48-2.77v3.43Z"/><path class="cls-6" d="M0,246.13c15.81,1.27,31.82,2.37,48,3.31v-3.38c-16.19-.95-32.19-2.06-48-3.35v3.42Z"/><path class="cls-6" d="M0,190.34c15.82,1.11,31.82,2.05,48,2.83v-3.38c-16.19-.79-32.19-1.75-48-2.88v3.43Z"/><path class="cls-6" d="M0,218.26c15.82,1.19,31.82,2.21,48,3.07v-3.37c-16.19-.87-32.19-1.92-48-3.12v3.43Z"/><path class="cls-6" d="M0,232.2c15.82,1.23,31.82,2.29,48,3.19v-3.37c-16.19-.91-32.19-2-48-3.24v3.43Z"/></g></g></svg>